<?xml version="1.0" encoding="UTF-8"?>
<svg width="16px" height="12px" viewBox="0 0 16 12" version="1.1" xmlns="http://www.w3.org/2000/svg" xmlns:xlink="http://www.w3.org/1999/xlink">
    <!-- Generator: Sketch 63.1 (92452) - https://sketch.com -->
    <title>Icon/Content/Small/CTAs</title>
    <desc>Created with Sketch.</desc>
    <g id="Symbols" stroke="none" stroke-width="1" fill="none" fill-rule="evenodd">
        <g id="Icons/Content/Small/CTAs" fill="#3F5D75">
            <g id="Icon/Content/Small/CTAs">
                <path d="M15.926,8.2877 L12.312,4.2597 C12.135,4.0627 11.808,4.1867 11.808,4.4517 L11.799,9.8637 C11.799,10.0667 12.002,10.2067 12.191,10.1347 L13.372,9.6837 L14.205,11.8647 C14.262,12.0137 14.429,12.0887 14.578,12.0317 L15.3,11.7557 C15.449,11.6987 15.524,11.5317 15.467,11.3827 L14.634,9.2017 L15.814,8.7507 C16.003,8.6787 16.061,8.4387 15.926,8.2877" id="Fill-33"></path>
                <path d="M10.8076,4.4504 C10.8086,3.7404 11.3876,3.1634 12.0986,3.1634 C12.4626,3.1634 12.8116,3.3194 13.0556,3.5914 L14.6366,5.3534 L14.6366,2.6714 C14.6366,1.6624 13.8156,0.8414 12.8066,0.8414 L1.8296,0.8414 C0.8206,0.8414 -0.0004,1.6624 -0.0004,2.6714 L-0.0004,5.6754 C-0.0004,6.6844 0.8206,7.5054 1.8296,7.5054 L10.8026,7.5054 L10.8076,4.4504 Z" id="Fill-34"></path>
            </g>
        </g>
    </g>
</svg>