<svg id="Layer_1" data-name="Layer 1" xmlns="http://www.w3.org/2000/svg" viewBox="0 0 32 32"><defs><style>.cls-1{fill:#3f5d75;}</style></defs><title>high-duplicate</title><path class="cls-1" d="M8.89,20.67h.5a1.78,1.78,0,0,1-.05-.35V8.22A2.67,2.67,0,0,1,12,5.56h8.89V5.11A3.12,3.12,0,0,0,17.78,2H8.89A3.12,3.12,0,0,0,5.78,5.11V17.56A3.12,3.12,0,0,0,8.89,20.67Z"/><path class="cls-1" d="M19.56,7.33H14.22a3.12,3.12,0,0,0-3.11,3.11V22.89A3.12,3.12,0,0,0,14.22,26h8.89a3.12,3.12,0,0,0,3.11-3.11V10.45a3.12,3.12,0,0,0-3.11-3.11H19.56Z"/></svg>