<svg width="16" height="15" xmlns="http://www.w3.org/2000/svg"><g fill="#3F5D75" fill-rule="evenodd"><path d="M12.005 11.26c-.379.379-.808.7-1.275.953a5.553 5.553 0 01-6.528-.954 5.482 5.482 0 01-1.616-3.902c0-1.474.573-2.86 1.616-3.902A5.482 5.482 0 018.104 1.84c1.473 0 2.86.575 3.901 1.616a5.478 5.478 0 011.616 3.902 5.482 5.482 0 01-1.616 3.902M8.105.002A7.308 7.308 0 002.9 2.156a7.308 7.308 0 00-2.154 5.2c0 1.965.766 3.812 2.155 5.202a7.39 7.39 0 005.222 2.148 7.314 7.314 0 003.483-.878 7.381 7.381 0 001.7-1.27 7.312 7.312 0 002.155-5.201 7.308 7.308 0 00-2.155-5.202A7.308 7.308 0 008.104 0"/><path d="M9.127 8.377l.001-.001v-.001l1.617-3.664-3.663 1.618H7.08v.002L5.461 9.997l3.663-1.62.001.002z"/></g></svg>