<?xml version="1.0" encoding="UTF-8"?>
<svg width="16px" height="15px" viewBox="0 0 16 15" version="1.1" xmlns="http://www.w3.org/2000/svg" xmlns:xlink="http://www.w3.org/1999/xlink">
    <!-- Generator: Sketch 63.1 (92452) - https://sketch.com -->
    <title>Icons/Utilities/Small/Menu</title>
    <desc>Created with Sketch.</desc>
    <g id="Icons/Utilities/Small/Menu" stroke="none" stroke-width="1" fill="none" fill-rule="evenodd">
        <g id="Icon/Utilities/Small/Menu" fill="#3F5D75">
            <path d="M12.0052,11.2595 C11.6262,11.6385 11.1972,11.9595 10.7302,12.2125 C8.6012,13.3645 5.9162,12.9735 4.2022,11.2595 C3.1592,10.2165 2.5862,8.8305 2.5862,7.3575 C2.5862,5.8835 3.1592,4.4975 4.2022,3.4555 C5.2442,2.4135 6.6302,1.8395 8.1042,1.8395 C9.5772,1.8395 10.9632,2.4135 12.0052,3.4555 C13.0482,4.4975 13.6212,5.8835 13.6212,7.3575 C13.6212,8.8305 13.0482,10.2165 12.0052,11.2595 M8.1042,0.0005 C6.1382,0.0005 4.2912,0.7655 2.9012,2.1555 C1.5122,3.5445 0.7462,5.3915 0.7462,7.3575 C0.7462,9.3225 1.5122,11.1695 2.9012,12.5595 C4.3102,13.9675 6.2082,14.7065 8.1232,14.7065 C9.3162,14.7065 10.5152,14.4195 11.6062,13.8295 C12.2292,13.4915 12.8012,13.0645 13.3062,12.5595 C14.6952,11.1695 15.4612,9.3225 15.4612,7.3575 C15.4612,5.3915 14.6952,3.5445 13.3062,2.1555 C11.9162,0.7655 10.0692,0.0005 8.1042,0.0005" id="Fill-7"></path>
            <polygon id="Fill-8" points="9.1272 8.3767 9.1282 8.3757 9.1282 8.3747 10.7452 4.7107 7.0822 6.3287 7.0812 6.3287 7.0802 6.3297 7.0792 6.3307 7.0792 6.3317 5.4622 9.9957 9.1252 8.3767 9.1262 8.3777"></polygon>
        </g>
    </g>
</svg>