<?xml version="1.0" encoding="UTF-8"?>
<svg width="23px" height="24px" viewBox="0 0 23 24" version="1.1" xmlns="http://www.w3.org/2000/svg" xmlns:xlink="http://www.w3.org/1999/xlink">
    <!-- Generator: Sketch 63.1 (92452) - https://sketch.com -->
    <title>Icons/Content/Quotes</title>
    <desc>Created with Sketch.</desc>
    <g id="----Icons" stroke="none" stroke-width="1" fill="none" fill-rule="evenodd">
        <g id="Icons" transform="translate(-1223.000000, -2133.000000)" fill="#7C98B6">
            <g id="Icons/_Stickersheet" transform="translate(412.500000, 384.000000)">
                <g id="Icons/HubSpotobjects/Quotes" transform="translate(810.000000, 1749.000000)">
                    <path d="M12.6896552,7.72413793 C12.8735632,7.81609195 13.0574713,8 13.2413793,8.09195402 C13.5172414,8.27586207 13.7011494,8.64367816 13.7011494,9.01149425 C13.7011494,9.37931034 13.5172414,9.74712644 13.2413793,10.0229885 C13.1494253,10.2068966 12.9655172,10.2988506 12.6896552,10.2988506 L12.6896552,10.2988506 Z M11.5862069,3.86206897 L11.5862069,5.70114943 C11.4022989,5.6091954 11.3103448,5.51724138 11.1264368,5.42528736 C10.9425287,5.33333333 10.8505747,5.05747126 10.8505747,4.7816092 C10.8505747,4.50574713 10.9425287,4.22988506 11.2183908,4.04597701 C11.3103448,3.95402299 11.4022989,3.86206897 11.5862069,3.86206897 L11.5862069,3.86206897 Z M19.2183908,0 L4.68965517,0 C2.85057471,0 1.37931034,1.47126437 1.37931034,3.31034483 L1.37931034,20.6896552 C1.37931034,22.5287356 2.85057471,24 4.68965517,24 L19.3103448,24 C21.1494253,24 22.6206897,22.5287356 22.6206897,20.6896552 L22.6206897,3.31034483 C22.5287356,1.47126437 21.0574713,0 19.2183908,0 Z M10.1149425,8.82758621 C10.2988506,9.28735632 10.4827586,9.74712644 10.8505747,10.1149425 C11.1264368,10.2988506 11.4022989,10.3908046 11.6781609,10.3908046 L11.6781609,7.26436782 C11.0344828,7.08045977 10.4827586,6.71264368 10.0229885,6.34482759 C9.56321839,5.97701149 9.37931034,5.42528736 9.37931034,4.87356322 C9.37931034,4.59770115 9.47126437,4.32183908 9.56321839,4.13793103 C9.65517241,3.86206897 9.83908046,3.67816092 10.0229885,3.49425287 C10.2068966,3.31034483 10.4827586,3.12643678 10.7586207,3.03448276 C11.0344828,2.85057471 11.4022989,2.75862069 11.7701149,2.66666667 L11.7701149,1.74712644 C11.7701149,1.74712644 11.7701149,1.74712644 11.7701149,1.74712644 C11.7701149,1.56321839 11.954023,1.37931034 12.137931,1.47126437 L12.5977011,1.47126437 C12.5977011,1.47126437 12.5977011,1.47126437 12.5977011,1.47126437 C12.7816092,1.47126437 12.9655172,1.56321839 12.9655172,1.74712644 L12.9655172,2.66666667 C13.4252874,2.75862069 13.8850575,2.85057471 14.2528736,3.12643678 C14.7126437,3.40229885 14.9885057,3.77011494 15.2643678,4.13793103 C15.3563218,4.68965517 14.5287356,5.24137931 13.7931034,4.68965517 C13.5172414,4.4137931 13.2413793,4.13793103 12.8735632,3.95402299 L12.8735632,6.25287356 C13.2413793,6.43678161 13.5172414,6.52873563 13.7931034,6.71264368 C14.0689655,6.89655172 14.3448276,7.08045977 14.6206897,7.26436782 C15.0804598,7.72413793 15.4482759,8.36781609 15.3563218,9.01149425 C15.3563218,9.65517241 15.0804598,10.2988506 14.6206897,10.7586207 C14.1609195,11.3103448 13.5172414,11.5862069 12.7816092,11.7701149 L12.7816092,12.5057471 C12.7816092,12.5057471 12.7816092,12.5057471 12.7816092,12.5057471 C12.7816092,12.6896552 12.5977011,12.8735632 12.4137931,12.7816092 L11.954023,12.7816092 C11.954023,12.7816092 11.954023,12.7816092 11.954023,12.7816092 C11.7701149,12.7816092 11.5862069,12.6896552 11.5862069,12.5057471 L11.5862069,11.7701149 C10.8505747,11.6781609 10.1149425,11.4022989 9.56321839,11.0344828 C9.01149425,10.5747126 8.64367816,9.93103448 8.55172414,9.1954023 C8.45977011,8.55172414 9.74712644,8.18390805 10.1149425,8.82758621 Z M18.5747126,21.0574713 L5.70114943,21.0574713 C5.14942529,21.0574713 4.7816092,20.6896552 4.7816092,20.137931 C4.7816092,19.5862069 5.14942529,19.2183908 5.70114943,19.2183908 L18.5747126,19.2183908 C19.1264368,19.2183908 19.4942529,19.5862069 19.4942529,20.137931 C19.4942529,20.5977011 19.1264368,21.0574713 18.5747126,21.0574713 Z M18.5747126,16.6436782 L5.70114943,16.6436782 C5.14942529,16.6436782 4.7816092,16.2758621 4.7816092,15.7241379 C4.7816092,15.1724138 5.14942529,14.8045977 5.70114943,14.8045977 L18.5747126,14.8045977 C19.1264368,14.8045977 19.4942529,15.1724138 19.4942529,15.7241379 C19.4942529,16.2758621 19.1264368,16.6436782 18.5747126,16.6436782 Z" id="Shape"></path>
                </g>
            </g>
        </g>
    </g>
</svg>