<?xml version="1.0" encoding="UTF-8"?>
<svg width="16px" height="16px" viewBox="0 0 16 16" version="1.1" xmlns="http://www.w3.org/2000/svg" xmlns:xlink="http://www.w3.org/1999/xlink">
    <!-- Generator: Sketch 63.1 (92452) - https://sketch.com -->
    <title>Icon/Content/Small/Social Posts</title>
    <desc>Created with Sketch.</desc>
    <defs>
        <path d="M1.505,0 L14.495,0 C15.327,0 16,0.68 16,1.495 L16,10.504 C16,11.33 15.333,12 14.495,12 L8.259,12 L4.889,15.848 C4.792,15.948 4.657,16 4.523,16 C4.457,16 4.388,15.99 4.326,15.962 C4.132,15.883 4.005,15.693 4.005,15.482 L4.005,12 L1.505,12 C0.674,12 0,11.32 0,10.504 L0,1.495 C0,0.67 0.667,0 1.505,0 Z M9,4 L7,4 L7,2 L6,2 L6,4 L4,4 L4,5 L6,5 L6,7 L4,7 L4,8 L6,8 L6,10 L7,10 L7,8 L9,8 L9,10 L10,10 L10,8 L12,8 L12,7 L10,7 L10,5 L12,5 L12,4 L10,4 L10,2 L9,2 L9,4 Z M7,7 L7,5 L9.001,5 L9.001,7 L7,7 Z" id="path-1"></path>
    </defs>
    <g id="Symbols" stroke="none" stroke-width="1" fill="none" fill-rule="evenodd">
        <g id="Icons/Content/Small/Social-Posts">
            <g id="Icon/Content/Small/Social-Posts">
                <mask id="mask-2" fill="white">
                    <use xlink:href="#path-1"></use>
                </mask>
                <g id="Clip-2"></g>
                <polygon id="Fill-1" fill="#3F5D75" mask="url(#mask-2)" points="-5 21 21 21 21 -5 -5 -5"></polygon>
            </g>
        </g>
    </g>
</svg>