<?xml version="1.0" encoding="utf-8"?>
<!-- Generator: Adobe Illustrator 25.2.1, SVG Export Plug-In . SVG Version: 6.00 Build 0)  -->
<svg version="1.1" id="Layer_1" xmlns="http://www.w3.org/2000/svg" xmlns:xlink="http://www.w3.org/1999/xlink" x="0px" y="0px"
	 viewBox="0 0 32 32" style="enable-background:new 0 0 32 32;" xml:space="preserve">
<style type="text/css">
	.st0{fill:#7C98B6;}
</style>
<path class="st0" d="M6.1,13.5c-1.4,0-2.5,1.1-2.5,2.5s1.1,2.5,2.5,2.5V13.5z M6.1,18.5c1.4,0,2.5-1.1,2.5-2.5s-1.1-2.5-2.5-2.5
	V18.5z M16,13.5c-1.4,0-2.5,1.1-2.5,2.5s1.1,2.5,2.5,2.5V13.5z M16,18.5c1.4,0,2.5-1.1,2.5-2.5s-1.1-2.5-2.5-2.5V18.5z M25.9,13.5
	c-1.4,0-2.5,1.1-2.5,2.5s1.1,2.5,2.5,2.5V13.5z M25.9,18.5c1.4,0,2.5-1.1,2.5-2.5s-1.1-2.5-2.5-2.5V18.5z"/>
</svg>
