<svg width="25" height="21" xmlns="http://www.w3.org/2000/svg" xmlns:xlink="http://www.w3.org/1999/xlink"><defs><path d="M20.784 19.469h-7.517v-4.313h7.96v3.87a.443.443 0 01-.443.443zm-17.688 0a.443.443 0 01-.443-.442v-3.87h7.96v4.312H3.096zm-.443-6.966h7.96V8.192h-7.96v4.311zm10.614 0h7.96V8.192h-7.96v4.311zm7.517-10.502H3.096A3.099 3.099 0 000 5.096v13.93a3.1 3.1 0 003.096 3.096h17.688a3.1 3.1 0 003.096-3.095V5.096A3.099 3.099 0 0020.784 2z" id="a"/></defs><use fill="#7C98B6" xlink:href="#a" transform="translate(.5 -2)" fill-rule="evenodd"/></svg>