<svg width="16" height="16" xmlns="http://www.w3.org/2000/svg" xmlns:xlink="http://www.w3.org/1999/xlink"><defs><path d="M1.505 0h12.99C15.327 0 16 .68 16 1.495v9.009C16 11.33 15.333 12 14.495 12H8.259l-3.37 3.848a.511.511 0 01-.366.152.518.518 0 01-.518-.518V12h-2.5C.674 12 0 11.32 0 10.504V1.495C0 .67.667 0 1.505 0zM9 4H7V2H6v2H4v1h2v2H4v1h2v2h1V8h2v2h1V8h2V7h-2V5h2V4h-2V2H9v2zM7 7V5h2.001v2H7z" id="a"/></defs><g fill="none" fill-rule="evenodd"><mask id="b" fill="#fff"><use xlink:href="#a"/></mask><path fill="#3F5D75" mask="url(#b)" d="M-5 21h26V-5H-5z"/></g></svg>